<svg width="184" height="45" fill="none" xmlns="http://www.w3.org/2000/svg"><g clip-path="url(#clip0_1961_54)" fill="#fff"><path d="M3.22 38.91L0 44.96V12C0 5.35 5.36 0 12 0H45c-9.36 2.9-19.12 9.47-25.56 16.95a154.99 154.99 0 0 0-16.2 21.96z"/><path d="M45.07 0S30.69 6.71 26.3 16.8c-2.33 5.39-2.91 11.87-7.15 15.94-2.9 2.8-6.99 3.84-10.56 5.67-2.33 1.2-6.69 4.07-8.55 6.63h33.02c6.65 0 12-5.35 12-11.99V0zm16.67 23.55V15c0-.2.15-.35.35-.35h5.4c1 0 1.86.43 1.86 1.87v6.75c0 1.04-.85 1.86-1.86 1.86h-4.24a1.74 1.74 0 0 1-1.51-1.6zm-1.75-11.49a.97.97 0 0 0-1.01.97v22.35h2.37c.2 0 .35-.16.35-.35v-8.3c.39.5 1.16 1 2.13 1h3.62c2.52 0 4.58-1.78 4.58-4.42V16.5c0-3.1-2.06-4.43-4.58-4.43h-7.46zm15.93 0V27.4c0 .2.15.35.35.35h2.37V12.38c0-.2-.16-.32-.35-.32h-2.37zm0-7.02V7.6c0 .2.15.35.35.35h2.37V5.4c0-.2-.16-.35-.35-.35h-2.37zm9.4 13.15v-1.7c0-1.24.81-1.86 1.86-1.86h4.32c1.24 0 1.82.58 1.82 1.86v1.7c0 .2-.15.35-.35.35h-7.3c-.24-.04-.35-.2-.35-.35zm1.86-6.13c-2.52 0-4.58 1.56-4.58 4.47v6.63a4.56 4.56 0 0 0 4.58 4.58h8.12v-2.25c0-.2-.15-.35-.35-.35h-7.77a1.84 1.84 0 0 1-1.86-1.86v-2.8c.27.4.74.58 1.24.58h8.59c.74 0 .81-.42.81-.97v-3.6c0-2.91-2.02-4.46-4.58-4.46h-4.2v.03zm15.08 11.22v-6.75c0-1.05.81-1.87 1.86-1.87h4.24c.77.08 1.44.74 1.51 1.6v8.53c0 .2-.15.3-.35.3h-5.4a1.78 1.78 0 0 1-1.86-1.81zm7.92-19.05c-.2 0-.35.15-.35.35v8.5c-.39-.55-1.16-1.02-2.17-1.02H104a4.5 4.5 0 0 0-4.51 4.58v6.52a4.56 4.56 0 0 0 4.58 4.58h7.46a.98.98 0 0 0 1.01-1.01V4.23h-2.37zm10.38 19.32V15c0-.2.15-.35.35-.35h5.36c1 0 1.86.43 1.86 1.87v6.75c0 1.04-.85 1.86-1.86 1.86h-4.24a1.7 1.7 0 0 1-1.47-1.6zm-1.75-11.49a.97.97 0 0 0-1.01.97v22.35h2.37c.2 0 .35-.16.35-.35v-8.3c.39.5 1.16 1 2.14 1h3.6c2.53 0 4.6-1.78 4.6-4.42V16.5c0-3.1-2.07-4.43-4.6-4.43h-7.45zm15.93 0V27.4c0 .2.15.35.35.35h2.37V12.38c0-.2-.16-.32-.35-.32h-2.37zm0-7.02V7.6c0 .2.15.35.35.35h2.37V5.4c0-.2-.16-.35-.35-.35h-2.37zm9.48 18.5v-8.53c0-.2.15-.35.35-.35h5.4c1 0 1.86.43 1.86 1.87v6.75c0 1.04-.85 1.86-1.86 1.86h-4.24a1.77 1.77 0 0 1-1.51-1.6zm-1.71-11.48a.97.97 0 0 0-1.01.97v22.35h2.37c.2 0 .35-.16.35-.35v-8.3c.39.5 1.16 1 2.13 1h3.62c2.52 0 4.58-1.78 4.58-4.42V16.5c0-3.1-2.06-4.43-4.58-4.43h-7.46zm18.53 6.13v-1.7c0-1.24.82-1.86 1.87-1.86h4.3c1.21 0 1.83.58 1.83 1.86v1.7c0 .2-.15.35-.35.35h-7.3c-.23-.04-.35-.2-.35-.35zm1.87-6.13c-2.53 0-4.59 1.56-4.59 4.47v6.63a4.56 4.56 0 0 0 4.59 4.58h8.11v-2.25c0-.2-.15-.35-.34-.35h-7.78a1.84 1.84 0 0 1-1.86-1.86v-2.8c.27.4.74.58 1.2.58h8.59c.74 0 .82-.42.82-.97v-3.6c0-2.91-2.02-4.46-4.59-4.46h-4.16v.03zm17.44 0c-.97 0-1.75.47-2.14 1.01v-.7c0-.19-.15-.3-.35-.3h-2.37v15.32c0 .2.16.35.35.35h2.37V16.1c.08-.74.66-1.4 1.52-1.4h3.92c.2 0 .35-.15.35-.35V12.1h-3.65v-.04z"/></g><defs><clipPath id="clip0_1961_54"><path fill="#fff" d="M0 0h184v45H0z"/></clipPath></defs></svg>